<svg width="735" height="105" viewBox="0 0 735 105" fill="none" xmlns="http://www.w3.org/2000/svg">
<path d="M679.1 102.197V16.9603H693.192V70.5094L714.469 42.2149H731.947L708.694 72.1463L734.061 102.197H715.044L693.192 74.4828V80.7219V102.197H679.1Z" fill="black"></path>
<path d="M586.877 102.197V43.9753H600.384V102.197H586.877Z" fill="black"></path>
<path d="M520.737 102.316V16.9603H535.176V88.6897H572.438V102.316H520.737Z" fill="black"></path>
<path d="M471.656 73.5519L471.656 102.197H458.323V43.9822H470.018V50.3019C473.059 46.5569 479.248 42.5778 488.263 42.5778C500.729 42.5778 510.718 46.0888 511.887 70.7219V102.197H498.38L498.38 73.5519C497.448 59.8115 492.886 55.1538 484.872 55.1538C476.747 55.1538 471.656 62.1404 471.656 73.5519Z" fill="black"></path>
<path d="M626.293 71.5985V102.197H612.96V43.5274H624.655V49.8965C627.696 46.1222 633.754 42.5778 642.77 42.5778C652.307 42.5778 665.355 45.6504 666.524 70.476V102.197H652.726V73.2497C652.258 58.3886 647.29 55.1538 639.277 55.1538C631.151 55.1538 626.293 61.833 626.293 71.5985Z" fill="black"></path>
<path d="M421.351 103.595C403.949 103.595 392.649 91.5062 392.649 73.3733C392.649 55.1325 403.949 43.0439 421.351 43.0439C438.639 43.0439 449.939 55.1325 449.939 73.3733C449.939 91.5062 438.639 103.595 421.351 103.595ZM421.351 91.0188C430.764 90.0727 435.733 84.5984 435.733 73.3733C435.733 65.2774 432.424 55.6199 421.351 55.6199C410.051 55.6199 406.389 65.0409 406.389 73.3733C407.1 83.0169 410.051 91.0188 421.351 91.0188Z" fill="black"></path>
<path d="M333.03 102.537V16.9603L346.072 16.9603V47.2357C348.866 44.6532 351.292 42.578 362.374 42.578C373.552 42.578 387.759 52.8276 387.759 72.601C387.759 92.151 377.002 104.06 362.374 104.06C351.403 104.06 347.124 102.448 344.907 98.4258V102.537H333.03ZM344.674 72.6205C344.674 85.3559 349.373 92.183 359.346 92.183C367.963 92.183 373.552 84.3275 373.552 72.1506C373.552 60.1972 365.401 54.921 360.045 54.921C352.36 54.921 344.674 59.9967 344.674 72.6205Z" fill="black"></path>
<path d="M290.178 102.197V43.9962H301.913V53.2141V52.8251C305.406 46.7109 310.999 43.9962 318.29 43.9962C319.771 43.9962 324.85 43.6075 329.769 46.1854L322.317 56.3184C321.292 56.104 318.768 56.5513 316.262 56.5513C307.36 57.7231 304.234 66.7733 303.766 70.7574V102.197H290.178Z" fill="black"></path>
<path d="M225.436 86.4722C224.97 73.0861 236.27 68.1154 247.094 66.5652C252.005 65.8619 260.601 64.4693 263.322 64.4693V62.6062C263.088 60.7304 260.574 54.9209 252.451 54.9209C245.44 54.9209 240.866 58.8421 239.642 63.3048L227.299 59.1128C229.637 49.4998 237.779 42.112 252.33 42.6275C259.814 42.1586 276.184 44.7377 276.671 62.0727V102.349H265.097V95.6762C262.76 100.25 256.733 104.526 246.717 104.526C233.82 104.759 225.436 98.2984 225.436 86.4722ZM238.477 86.1278C238.477 91.9294 242.746 93.3473 249.423 93.3473C255.27 92.8784 260.834 90.0869 263.322 80.1417V75.218L251.053 77.511C242.166 79.6211 238.477 81.9075 238.477 86.1278Z" fill="black"></path>
<path d="M209.366 46.0715C203.753 35.6705 198.417 30.9338 187.242 30.9338C172.057 30.9338 161.216 43.2882 161.857 61.4421C162.556 81.2376 171.48 90.5531 186.543 90.5531C197.597 90.5531 204.684 85.931 209.366 75.1825L222.641 81.9362C217.517 93.5806 207.503 104.061 187.018 104.061C163.72 104.992 146.719 87.7866 146.719 60.7435C146.719 32.7969 164.186 16.4948 187.018 16.9606C205.604 16.9606 217.517 27.4405 221.942 37.9205L209.366 46.0715Z" fill="black"></path>
<path fill-rule="evenodd" clip-rule="evenodd" d="M60.3139 27.2076H36.3305C16.2657 27.2076 0 43.4733 0 63.5381V64.4697C0 84.5344 16.2657 100.8 36.3305 100.8H59.7479L61.3401 90.5531H36.3305C21.925 90.5531 10.2471 78.8751 10.2471 64.4697V63.5381C10.2471 49.1326 21.925 37.4547 36.3305 37.4547H58.7217L60.3139 27.2076ZM71.1428 37.4547H87.1C101.505 37.4547 113.183 49.1326 113.183 63.5381V64.4697C113.183 78.8751 101.505 90.5531 87.1 90.5531H73.7612L72.1691 100.8H87.1C107.165 100.8 123.43 84.5344 123.43 64.4697V63.5381C123.43 43.4733 107.165 27.2076 87.1 27.2076H72.735L71.1428 37.4547Z" fill="url(#paint0_linear_5006_2708)"></path>
<path fill-rule="evenodd" clip-rule="evenodd" d="M58.797 36.9889H35.3997C20.4798 36.9889 8.38477 49.0839 8.38477 64.0039C8.38477 78.9238 20.4798 91.0188 35.3997 91.0188H61.2684L62.8606 80.7718H35.3997C26.1391 80.7718 18.6318 73.2645 18.6318 64.0039C18.6318 54.7432 26.1391 47.2359 35.3997 47.2359H57.2048L58.797 36.9889ZM69.6219 47.2359H87.5666C96.8272 47.2359 104.334 54.7432 104.334 64.0039C104.334 73.2645 96.8272 80.7718 87.5666 80.7718H75.2814L73.6893 91.0188H87.5666C102.487 91.0188 114.582 78.9238 114.582 64.0039C114.582 49.0839 102.487 36.9889 87.5666 36.9889H71.2141L69.6219 47.2359Z" fill="black"></path>
<path d="M597.822 36.9724C598.21 30.5292 603.877 18.8234 622.974 22.0838C621.499 29.2257 616.919 43.7424 597.822 36.9724Z" fill="#76BE57"></path>
<path d="M589.205 35.1255C571.133 36.9886 561.103 14.3047 558.697 2.97079C564.752 -0.971976 574.688 -0.118087 578.725 0.658205C592.326 3.26655 598.521 12.3025 599.452 16.0287C601.781 30.235 593.242 34.8926 589.205 35.1255Z" fill="#76BE57"></path>
<defs>
<linearGradient id="paint0_linear_5006_2708" x1="-0.232888" y1="65.1683" x2="123.43" y2="66.3328" gradientUnits="userSpaceOnUse">
<stop stop-color="#016751"></stop>
<stop offset="1" stop-color="#129E7B"></stop>
</linearGradient>
</defs>
</svg>